<svg xmlns="http://www.w3.org/2000/svg" width="1920" height="409" viewBox="0 0 1920 409">
  <path id="교차_1" data-name="교차 1" d="M660,335V67.86q44.582-14.787,91.383-28.2C878.558,3.221,1016.1-24.98,1160.192-44.158c36.471-4.855,73.809-9.18,110.979-12.855,37.506-3.709,75.825-6.855,113.9-9.349,38.449-2.518,77.649-4.438,116.514-5.707C1540.86-73.351,1580.843-74,1620.418-74s79.557.649,118.838,1.931c38.864,1.269,78.066,3.189,116.515,5.707,38.069,2.493,76.388,5.639,113.894,9.349,37.17,3.675,74.509,8,110.979,12.855,144.09,19.178,281.633,47.379,408.809,83.819q46.34,13.278,90.548,27.922V335Z" transform="translate(-660 74)" fill="#a19193" opacity="0.68"/>
</svg>
